<svg xmlns="http://www.w3.org/2000/svg" viewBox="0 0 506.09 436.23">
    <defs>
        <style>.cls-1{fill:#050301;}.cls-2{fill:#fd1900;}.cls-3{fill:#fdfd00;}</style>
    </defs>
    <g id="Ebene_2">
        <g id="Ebene_1-2">
            <path class="cls-1" d="M177,350.9c-2.36,2.84-5.1,5.46-7,8.58-5.35,8.83-10.2,18-15.54,26.8-5,8.27-7.22,17.53-10.08,26.58a43.81,43.81,0,0,1-7.17,14.34,10.18,10.18,0,0,1-.73.87,1.39,1.39,0,0,1-.44.19c2-6.68,3.92-13.31,5.87-19.94a268.48,268.48,0,0,0,8.59-39.84,217.81,217.81,0,0,0,1.42-32.8c0-1.25-.43-1.3-1.29-.66-4,3-8,6.22-12.16,9-5.42,3.64-9.41,8.73-14,13.21-3.91,3.8-7.75,7.68-11.81,11.32a47.52,47.52,0,0,1-6.18,4.08,1.64,1.64,0,0,1-.56.24,6,6,0,0,1-.9,0,28.44,28.44,0,0,1,2.7-3.1c5.91-5.07,10.67-11.2,15.9-16.89,4.79-5.22,8.59-11.11,12.53-16.91a2.72,2.72,0,0,0,.38-.53c.22-.47.39-1,.58-1.43a9.43,9.43,0,0,0-1.6.08c-2.83.59-5.65,1.18-8.46,1.83-9.63,2.23-19.29,4.59-27.7,10-7.7,4.91-14.94,10.55-22.45,15.78-1.54,1.07-2.46,3.13-4.73,3.13-.17,0-.47.37-.48.58,0,1.56-1.36,2.19-2.28,3.06-.27.25-.89.14-1.34.19v0A11.31,11.31,0,0,1,68.8,367a249.45,249.45,0,0,0,28.07-59.54c.22-.71.35-1.45.52-2.18l-2.14.94-.38.27,0,0c-2.8,1.68-5.66,3.23-8.36,5-11.88,8-23.75,16-35.51,24.1-3.08,2.13-5.69,4.91-8.68,7.18-5.21,3.95-10.1,8.4-16.32,10.85a4.87,4.87,0,0,1-.71.3,1.62,1.62,0,0,1-.51,0c1.91-2,3.81-4.15,5.85-6.15,5.17-5.08,10.5-10,15.57-15.17,10.69-10.9,21.53-21.68,31-33.73,4.82-6.17,9.09-12.76,13.62-19.16,1.16-1.1,1-2-.12-3.15-5.25-5.44-11.68-9.07-18.42-12.22-14-6.55-28.85-10.8-43.84-14.46L24,248.76c2.76,0,5.38,0,8,0,8.73-.08,17.45-.23,26.17-.26a308.65,308.65,0,0,0,41.2-3.05c1.5-.21,2.06-.71,1.42-2.17a40.09,40.09,0,0,0-.39-4.54c-.08-.43-.93-.91-1.49-1-6.11-1.36-12.29-2.41-18.34-4-9.81-2.59-19.83-4-29.79-5.83-5.34-1-10.59-2.48-15.92-3.51-5-1-10-1.63-15-2.37C13,221,6,220,0,219.1c1.37,0,3.7.13,6,0,6.45-.42,12.85.26,19.28.61,9.2.51,18.42.66,27.63,1,5.55.22,11.11.92,16.65.75,7.62-.25,15.22-1.13,22.83-1.7,1.06-.08.69-.45.33-.94-2.37-3.2-4.42-6.69-7.15-9.53-7.39-7.65-14.92-15.17-22.67-22.45-4.82-4.53-10.79-7.49-16.52-10.76-6.57-3.74-13-7.82-19.3-11.92a57.29,57.29,0,0,1-6-5c-.19-.16-.24-.48-.36-.72a2.82,2.82,0,0,1,.73.08c12.12,5.12,24.38,9.7,37.32,12.49,13.45,2.9,27,5.25,40.7,5.77,6.91.26,13.83-.16,20.75-.33a9.89,9.89,0,0,0,2.45-.72,22.83,22.83,0,0,0-1.42-1.93c-10.35-11.68-20.85-23.21-31-35.05A221.52,221.52,0,0,0,73.9,121.19a19.13,19.13,0,0,1-3.36-4.6c2.55,1.51,5.2,2.89,7.63,4.57,9,6.24,19,10.83,28.81,15.57,9.13,4.39,18.35,8.5,27.83,12.07.66.24,1.34.45,2,.68.45.18.89.38,1.36.53s1,.23,1.5.35a12.16,12.16,0,0,0-.09-1.6c-.68-3.8-1.5-7.58-2.07-11.39a170.66,170.66,0,0,0-13.23-43.92q-4.14-9.33-8.26-18.66l.22-.21c.23.23.48.44.68.68,10.44,12.32,20.78,24.72,31.35,36.92,8.69,10,18.82,18.32,31.06,23.79,1.82.81,1.81.83,2.13-1.25A76,76,0,0,0,184.24,116l-.21-8.91c-.5-5.76-.94-11.52-1.5-17.27-.48-4.88-1-9.76-1.67-14.61-2-13.5-6.33-26.25-12-38.63-2.66-5.82-4.68-11.94-6.87-18a57.24,57.24,0,0,1-1.54-6,1.19,1.19,0,0,1,.06-.45c.2.11.49.16.6.33A48.27,48.27,0,0,1,164.42,18c12.69,27.74,28,53.87,46.91,77.87,5,6.42,10.26,12.73,15.41,19.09.34.42.75.79,1.12,1.18l1.56,1.54c.19-.62.41-1.24.55-1.87a335.11,335.11,0,0,0,6.36-43.11c.4-4.38.91-8.75,1.38-13.13.34,2.14.39,4.27.67,6.37,1,7.33,1.86,14.69,3.14,22,1.55,8.84,5.28,17,8.21,25.45a45.73,45.73,0,0,0,1.82,4.34,9.83,9.83,0,0,0,1.21,1.63l.89-1.87c3.88-8.69,5.94-17.92,8.33-27.08,3.09-11.8,3.11-23.81,3.31-35.86.09-5.77.7-11.52.87-17.29.12-4-.09-8-.15-11.94a3.45,3.45,0,0,1,.15-1.13c.52,3.51,1.11,7,1.53,10.52s.85,7.15,1,10.74c.43,10.29.56,20.59,1.11,30.87.51,9.53,1.39,19,2.13,28.54a76,76,0,0,0,3,17.83c1.1,3.4,1,3.34,3.71.9,5-4.57,8.53-10.31,12.6-15.62,3.51-4.58,6.93-9.23,10.38-13.86,4.52-6.07,9.23-12,13.46-18.27a193.71,193.71,0,0,0,10.17-17c6.16-11.46,12.25-23,18-34.65,2.89-5.89,4.92-12.19,7.38-18.29.8-2,1.73-3.92,2.6-5.88h.33c-.87,4.93-1.73,9.86-2.63,14.79-1.07,5.84-2.25,11.66-3.26,17.5-1.3,7.55-2.44,15.13-3.74,22.68-1.15,6.68-2.58,13.31-3.62,20-1.41,9-2.56,18.11-3.8,27.17-.54,3.94-1,7.89-1.52,11.83-.05.92-.11,1.85-.19,3.19.77-.83,1.21-1.29,1.63-1.77a241.92,241.92,0,0,0,22.17-29.95c2.83-4.45,5.52-9,8.27-13.5l.18.15c-.15.51-.29,1-.46,1.55-2.73,8-5.61,15.9-8.16,23.92-2.2,6.89-4.17,13.87-4.54,21.17a13.29,13.29,0,0,0,1.12,7c.41.79.75.84,1.22.11,3.83-3.24,7.6-6.55,11.5-9.71,7.15-5.81,14.63-11.24,21.48-17.37,7.47-6.68,14.36-14,21.53-21,4.58-4.48,7.73-10,11.06-15.34.73-1.18,1.64-2.25,2.46-3.38l.43.21a43.93,43.93,0,0,1-1.36,4.58c-1.5,3.69-3,7.39-4.75,10.95-2.46,5-5,9.91-7.8,14.69a216.14,216.14,0,0,0-12.37,24.44c-3.39,7.95-7.25,15.7-10.71,23.62-2.21,5.06-4.07,10.27-6.08,15.42l.57.34c.77-.69,1.55-1.37,2.31-2.07,9.06-8.51,18.21-16.93,27.17-25.55,7.54-7.26,15-14.6,22.25-22.18,5-5.2,9.2-11.08,14.17-16.28,4-4.18,6.94-9,9.92-13.82l0,0c-1.45,3.75-2.77,7.57-4.41,11.24-2.47,5.56-5.29,11-7.76,16.51-6.3,14.11-15.93,26.29-23,40-1.79,3.48-3.79,6.85-5.7,10.27l-1.8,3a136.75,136.75,0,0,0,20.5-9.87c14.48-8.53,27-19.52,38.82-31.3,2.66-2.65,5.18-5.44,7.76-8.17l.3.28q-3.54,5.48-7.08,11c-15.05,23.1-29.5,46.55-42.81,70.7-.34.61-.6,1.26-.89,1.9l2.19-.22,8.28-1.63,1.22-.31h0l6.8-1.67,16.32-4.86.15.27c-1.52.94-3,1.91-4.56,2.82-5.75,3.38-11.39,7-17.31,10-5,2.59-10.31,4.56-15.48,6.8l-2.25.94c-1.2.29-2.42.4-3,1.81-3.18,7.33-6.43,14.62-9.6,22-.78,1.8-.67,1.84,1.3,1.93a31.78,31.78,0,0,0,4.52.52c10.52-.33,21-.65,31.54-1.16,5.61-.26,11.21-.77,16.79-1.39,4.64-.51,9.27-1.25,13.86-2.07,3.51-.63,7-1.55,10.43-2.34,0-.06,0,.07,0,.1-4.88,3-9.46,6.52-14.67,9.12-7.21,3.6-15,5.42-22.51,7.91-11.19,3.69-22.39,7.32-33.58,11a35.43,35.43,0,0,0-3.57,1.6c-1.57.61-1.56,1.51-.88,3A162.66,162.66,0,0,0,431,275.73,661.34,661.34,0,0,0,493,354a9.1,9.1,0,0,1,.85,1.3,11.48,11.48,0,0,1-2.52-1.13c-15.08-8.31-30.2-16.57-45.24-24.95a175.61,175.61,0,0,0-23.7-11.41c-1.35-.51-2.73-.94-4.54-1.56l1.37,2.54c1.13,2.1,2.32,4.18,3.4,6.31,3.39,6.69,6.73,13.41,10.12,20.11,1.54,3,3.16,6.05,4.73,9.08a2.06,2.06,0,0,1,.17,1.32c-11.21-16.5-26.1-29.29-41.27-41.8-.95-.71-1.82-1.93-2.84-2a48.69,48.69,0,0,0-10.08-.49A16.73,16.73,0,0,0,373,316.57c-2.7,2.76-4.59,5.95-2.77,10.06,1.5,5.11,3.08,10.19,4.47,15.33,3.54,13,8.43,25.59,12.72,38.36,2.09,6.23,3.76,12.6,5.58,18.92a57.07,57.07,0,0,1,1.61,7.37c-.77-1.46-1.66-2.88-2.31-4.41-3.69-8.76-7.32-17.55-11-26.32-.56-1.35-1.16-2.69-1.83-4Q374,361.23,368.49,350.6l-1.81-3.38c0,10.51,2,20.68,3.93,30.86s3.88,20.49,5.82,30.73l-.45.13c-.18-.43-.39-.85-.54-1.28a176.8,176.8,0,0,0-11.08-25.26,122.71,122.71,0,0,0-21.68-29.74,18.38,18.38,0,0,0-2.12-1.56l.63,2.8.27.39,0,0c.7,3.84,1.46,7.67,2.09,11.53,1.22,7.46,2.44,14.92,3.52,22.4.39,2.73.38,5.52.53,7.92-3.37-9.77-7-19.84-10.32-30a126.75,126.75,0,0,0-8.93-20.23l-1-1.57a13.51,13.51,0,0,0-.69,1.75,4.51,4.51,0,0,0-.23,1.94c.45,2.2-.49,4.14-.94,6.19-3.46,15.77-6.07,31.66-6.22,47.86,0,3.06,0,6.13,0,9.2a359.49,359.49,0,0,0-14.31-33.65c-5.41-11-11.34-21.6-19.09-31.5-.14,1.16-.23,2-.32,2.77-.49,2.53-1,5.05-1.46,7.58l-.39,0V346.31c-.2-1.25,0-2.86-.68-3.69-2.8-3.32-5.88-6.39-8.85-9.58-.92-1-1.27-.55-1.41.51a7.3,7.3,0,0,0,0,.81c-.88,5.15-1.84,10.28-2.61,15.44-1.2,8-2.27,16.06-3.4,24.1-1.4,9.92-2.69,19.82-2.26,29.92A148.83,148.83,0,0,1,263,431.06c-.11.74-.14,1.49-.23,2.5a88.7,88.7,0,0,1-1.88-19.06c.43-17.19.06-34.35-3.26-51.29-1.4-7.19-3.43-14.27-5.21-21.39a4.5,4.5,0,0,0-.74-1.15,7.13,7.13,0,0,0-.68.88q-5,9.33-10,18.69c-3.77,7.06-5.85,14.75-8.14,22.34-1.33,4.42-2.17,9-3.38,13.44-1,3.69-2.21,7.33-3.45,11.4-.56-4.94.23-9.32.86-13.73,1.31-9.17,2.36-18.37,3.69-27.53a154.7,154.7,0,0,0,1.57-26.42c-.06-2.39-.32-4.78-.49-7.17a7.56,7.56,0,0,0-.16-1.44c0-.17-.62-.38-.71-.3a41.56,41.56,0,0,0-3.22,3c-.44.47-.44,1.42-.92,1.74-4.94,3.33-8.59,7.89-11.95,12.66-8,11.37-14,23.86-19.43,36.58-4.12,9.61-7.71,19.44-11.57,29.15-.14.36-.61.59-.93.88-.18-.41-.55-.83-.53-1.23.71-14.16,1.2-28.32.06-42.48a108.59,108.59,0,0,0-3.46-20.41,9.07,9.07,0,0,0-.49-1.17c-.33.27-.68.52-1,.81A2.88,2.88,0,0,0,177,350.9Zm-51,1.64.3-.37a21.53,21.53,0,0,0,3.69-2.79,99.24,99.24,0,0,1,15.26-13.94c8.37-6.37,17-12.38,25.53-18.53,4.06-2.93,8.41-5.53,12.16-8.82a66.9,66.9,0,0,1,19-11.26,17.26,17.26,0,0,1,9.75-1.32c9.19,1.65,15.13,7.3,18.74,15.6,3.71,8.55,4.4,17.73,4.83,26.87a146,146,0,0,1-2.31,31.92,3.94,3.94,0,0,0,0,.68,3.12,3.12,0,0,0,.49-.47,3,3,0,0,0,.23-.61A97.13,97.13,0,0,1,242.84,350c2.77-4.75,5.45-9.55,8.32-14.23q5.42-8.85,11.1-17.53a18.68,18.68,0,0,1,7.37-7,9.86,9.86,0,0,1,12.87,3.94,18.79,18.79,0,0,1,2.24,8.94c.19,5.3.06,10.61.06,15.91h.94c0-3.58-.15-7.16.05-10.73.13-2.41.24-5,1.21-7.15,2.55-5.6,6.06-10.55,11.33-14.07,3.27-2.19,8.19-2.59,11.42-.54a23,23,0,0,1,8.78,9.49c4.55,9.51,8.8,19.17,13.51,28.59,3.64,7.3,6.3,14.93,9,22.57.13.35.31.67.47,1a7.78,7.78,0,0,0-.32-3l-4.8-18.49c-1.37-5.32-2.91-10.6-4.06-16-1.25-5.79-2.25-11.65-3.15-17.51-1.56-10.24-.17-19.78,7.1-27.8,3.2-3.54,7-6.25,11.79-6.77,8.23-.87,15.49,1.87,21.8,7,3.33,2.71,6.28,5.89,9.49,8.75,3.83,3.41,7.73,6.72,11.64,10,6.32,5.36,12.61,10.76,19,16a93.08,93.08,0,0,1,13.63,13.14c1.33,1.62,2.61,3.27,3.9,4.9l0,0,0,0c-.12-.09-.3-.16-.35-.28-1.38-2.93-2.54-6-4.17-8.76-2.36-4-5.29-7.73-7.57-11.8-7.37-13.22-14.49-26.58-21.85-39.8-4.06-7.28-8.41-14.4-12.63-21.58-1.19-2-2.82-3.9-3.53-6.07a31,31,0,0,1-1.24-8c-.44-9.62,3.84-17.63,9.11-25.17,4.84-6.91,11.76-11.06,19.65-13.69s16-5.1,23.86-7.87c5.27-1.85,10.4-4.1,15.57-6.2a4.23,4.23,0,0,0,.94-.77,4.41,4.41,0,0,0-1.26,0c-1.73.54-3.4,1.33-5.17,1.71-16.58,3.54-33.33,3.48-50.14,2.25-4.15-.3-7.72-2.15-11.38-3.67-1.59-.66-1.16,0-1.33.79-.62,3-1.1,6-2,8.92-2.29,7.65-6.52,13.71-13.81,17.61-7.55,4-15.55,5.07-23.87,4.86-2.52-.06-2.61-.1-2.55,2.38.21,9.43.4,18.87.77,28.3A104.44,104.44,0,0,0,335.87,265c.72,4.44,1.85,8.83,2.89,13.22.66,2.75-.37,4.32-3.22,4.57a20.19,20.19,0,0,1-2.46,0c-4.8-.16-9.59-.28-14.39-.51-3.81-.18-7.62-.43-11.41-.79-1.85-.17-2.29-1.36-1.63-3a25.37,25.37,0,0,0,2.05-6.32c1-9.32,2.07-18.64,2.6-28,.41-7.23.28-14.5,0-21.74-.27-7.07-.75-14.17-1.67-21.19C307,188.84,305,176.47,303,164.1c-.38-2.39.09-4.33,1.89-5.68a102.49,102.49,0,0,1,8.67-5.75,39.26,39.26,0,0,1,4.87-2.14,5.62,5.62,0,0,0-1.67-.08c-7.89.05-11.52-1.62-14.08-8.08a19.12,19.12,0,0,1-1.13-5.73c-.19-2.79-.05-5.61-.05-9a8.25,8.25,0,0,1-.95,1.56c-4,3.84-8.23,7.32-13.77,8.76-4.42,1.16-6.81.39-9.51-3.27a36.76,36.76,0,0,1-7.12-16.84c-1.14-8.47-1.82-17-2.67-25.51-.24-2.35-.39-4.7-.57-7-.35.18-.42.33-.45.48-2.75,12.45-5.86,24.77-11.09,36.47a58.36,58.36,0,0,1-8.3,13.63,18.4,18.4,0,0,1-10.3,6.54c-5.51,1.23-10.54-.58-15.09-3.38-6.26-3.84-12-8.42-16.2-14.56a3.77,3.77,0,0,0-.65-.56c0,.54,0,.86,0,1.17.27,5.29.85,10.57.73,15.85-.14,5.81-.59,11.69-4.85,16.37a1.21,1.21,0,0,0,.3,2c1,.58,2,1.18,2.94,1.75,5.67,3.26,10.45,7.4,12.58,13.81a54.46,54.46,0,0,1,2.21,9.51c.82,5.85,1.21,11.79-.54,17.52-1.2,4-3,7.72-4.6,11.6,7.31-.94,13.86,1.31,19.65,6.42s8.72,11.53,10.23,18.9a4.69,4.69,0,0,0,.38-1.48c.51-6.36,1.06-12.71,1.48-19.08.33-4.89.46-9.79.75-14.69.07-1.17-.36-1.51-1.47-1.45-3.63.21-7.27.31-10.9.56-2.31.16-3-.39-3.17-2.76a31.59,31.59,0,0,0-.34-4.88c-1.2-5.64-2.55-11.24-3.86-16.86-.43-1.86,0-2.91,1.84-3.05,4.05-.32,8.13-.42,12.2-.41,1.19,0,1.8.19,1.57-1.35-.75-5.12-1.38-10.25-2.09-15.38a2.47,2.47,0,0,1,1.12-2.81,80,80,0,0,1,20.31-8.33c2.45-.69,3.69,0,4.13,2.54a52.6,52.6,0,0,1,.6,7c.15,4.41.15,8.83.27,13.25a29.85,29.85,0,0,0,.45,3.23c1.1-.31,2.19-.63,3.29-.93,5.82-1.61,11.63-3.25,17.46-4.82,2.59-.69,4,.2,4.13,2.62.53,8.11,1,16.22,1.51,24.33a3.08,3.08,0,0,1-2.28,3.52,22.44,22.44,0,0,1-5.08,1.07c-4.79.23-9.59.24-14.39.33-2.13,0-2.14,0-2.26,2.27-.18,3.32-.13,6.67-.54,10-1.13,9.07-2.51,18.12-3.65,27.19-.57,4.55-.29,9.05,2.28,13.09a6,6,0,0,0,5.87,2.82c2.29-.13,3.09-2,3.87-3.75,1.88-4.19,2.14-8.62,2-13.13a2.6,2.6,0,0,1,.83-2.06,3.56,3.56,0,0,1,2.37.23c1.52.52,2.93,1.5,4.47,1.74a30.58,30.58,0,0,0,6.83.24,9.37,9.37,0,0,0,4.29-1.28c2-1.31,2.82-1.42,4.07.6a21.15,21.15,0,0,1,2.85,10.61c.23,6.77-2.36,12.77-5.39,18.61-3.33,6.4-8.77,10.57-14.91,14a26.23,26.23,0,0,1-35.56-9.23,30.71,30.71,0,0,1-4.93-16.86c0-1.2-.11-2.4-.17-3.6-.38.13-.44.23-.46.33-3.76,17.28-13.58,29.55-30.13,36.1a86.72,86.72,0,0,1-10.33,3c-7.9,2-15.8,4.06-23.72,6-2.93.71-4.38-.46-4.84-3.49-.09-.54-.16-1.08-.3-1.61-1.23-4.85-2.51-9.68-3.72-14.54-2.16-8.71-4.11-17.45-6.79-26-4.61-14.74-8.63-29.67-12.85-44.53-2.64-9.32-5.05-18.7-7.86-28a5.47,5.47,0,0,1,1.11-5.81,70.78,70.78,0,0,1,6-6c2.22-1.93,4.69-3.59,7.15-5.44-5.15-2-10.16-4.12-15.29-5.93a400.78,400.78,0,0,1-49.12-21.2c-1.25-.63-2.57-1.14-3.85-1.71l-.28-.18.19.29a6.16,6.16,0,0,0,.53.8c6.24,6.93,12.53,13.82,18.73,20.78,5.58,6.27,11,12.66,16.62,18.94a102.81,102.81,0,0,1,14,19.06,55.68,55.68,0,0,1,3.94,9.46,11.77,11.77,0,0,1-2.35,11.94A27.09,27.09,0,0,1,127.4,221a48.36,48.36,0,0,1-14.69,2,296.1,296.1,0,0,0-34.46,1.5,93.33,93.33,0,0,1-20.26.18c-3.41-.37-6.86-.51-10.29-.75a5.65,5.65,0,0,0,2.17.76c11.35,2,22.76,3.75,33.93,6.79,6,1.64,12.28,2.38,18.38,3.8s12.45,3.11,18.61,4.91c4.22,1.23,8.36,2.75,12.46,4.33,3.7,1.44,5.34,4.33,5.49,8.3.2,4.74-1.65,8.75-4.18,12.47-2.23,3.28-4.77,6.33-7.17,9.49a3.18,3.18,0,0,0,.7-.1c4.31-1.33,8.63-2.65,12.93-4a54.34,54.34,0,0,1,13.24-2.68c4.5-.26,7.2,1.39,8,5.79a23.8,23.8,0,0,1,0,7.1,83.7,83.7,0,0,1-5.43,22.78c-4.52,10.95-10.32,21.25-16.41,31.39a8.28,8.28,0,0,1-.68.91c-1.81,2.23-3.62,4.48-5.46,6.7-2.67,3.21-5.36,6.41-8,9.61l-.35.37,0,.05ZM409.51,84.41l-.46.42c-5.82,5.5-11.42,11.27-17.52,16.45C379.16,111.81,366.47,122,354,132.37A94.81,94.81,0,0,1,332,146.53c-.71.32-1.44.61-2.15.92a1.77,1.77,0,0,0,1,.12A42.91,42.91,0,0,1,348,148c4.66,1,9,2.51,12.71,5.85,5.32,4.81,9.09,10.66,12.37,16.91.3.59.5,1.23.92,2.26.17-1.19.25-1.88.37-2.56A147.29,147.29,0,0,1,382,143.34c2.81-7.23,6.27-14.22,9.44-21.32s6.1-14.08,9.43-21c2.59-5.38,5.62-10.55,8.45-15.82l.38-.61.08-.49Zm38,7.26-3.48,4.68c-1.14,1.49-2.23,3-3.42,4.45a72.47,72.47,0,0,1-4.92,5.69q-19.41,19-39,37.84c-3.8,3.67-7.76,7.2-11.88,10.5-3.23,2.59-5.76,5.39-6.17,9.68a17.51,17.51,0,0,1-.51,2.23c-1.24,5.28-2,10.61-1,16,.24,1.3.84,3,1.82,3.59,3.22,1.77,6.55,3.44,10.39,3.59a1.71,1.71,0,0,0,1.94-1.17c2.42-4.93,4.7-10,7.5-14.68,8.43-14.18,17.73-27.84,25.49-42.44,3.7-7,8.3-13.44,12.28-20.26,2.78-4.79,5.2-9.79,7.79-14.7,1.84-1.18,2.57-3.06,3.13-5a.32.32,0,0,0,.14,0s0-.06.06-.09ZM58.05,326c6.4-4.16,12.77-8.35,19.2-12.45,6.11-3.9,12.1-8,18.46-11.48,7.27-3.93,14.83-7.34,22.38-10.75,6.81-3.07,13.94-5,21.55-4.45,5.9.41,10.69,2.53,13.12,8.35.72,1.71,1.35,3.44,2.17,5.54.84-3.36,1.63-6.46,2.37-9.56,1.22-5.1,2.34-10.19,1.81-15.51-.31-3.21-1.55-4.42-4.72-4.15A25.31,25.31,0,0,0,150,272c-5.73,1.53-11.48,3-17.11,4.85-4.38,1.43-8.57,3.42-12.89,5a2.81,2.81,0,0,1-2.31-.36c-.82-.68-.56-1.68.17-2.45.19-.2.42-.36.6-.56,4.29-4.72,8.75-9.3,12.77-14.23a24.25,24.25,0,0,0,4-7.78c1.6-5,0-7.84-4.7-9.89-8.25-3.56-17.16-4.91-25.67-7.57-.89-.27-1,0-.93,1a58.43,58.43,0,0,1,.61,8.13,60,60,0,0,1-8,28.51c-7.17,12.75-16.15,24.2-25.86,35.1-4.2,4.72-8.58,9.28-12.88,13.92l-.46.32Zm182.33-82.73c-.27-5.37-1.72-11.65-6-16.9-5-6.21-11.22-10.17-19.62-9.32-3.14.32-6.25.82-9.39,1.13-.61.06-1.27-.42-1.91-.65.33-.58.51-1.36,1-1.72,1.34-1,3-1.63,4.21-2.75,4-3.71,5.7-8.69,6.69-13.87,1.19-6.2.38-12.4-.75-18.51a21,21,0,0,0-5.45-11.16,37.1,37.1,0,0,0-13-8.4c-9.09-3.59-18.51-3.59-28-1.78-5.13,1-9.56,3.58-13.58,6.75a95.3,95.3,0,0,0-8.35,7.74,3.13,3.13,0,0,0-.69,2.59q6.28,22.74,12.78,45.42c3.27,11.4,6.84,22.72,10,34.16,2.68,9.7,4.91,19.52,7.39,29.28.55,2.14,1.24,4.26,2,6.35a1.42,1.42,0,0,0,1.16.68,255.44,255.44,0,0,0,33.58-8.91c9.67-3.12,16.52-10.05,21.74-18.48A39.53,39.53,0,0,0,240.38,243.22Zm98.68-24.66a41.18,41.18,0,0,0,21.09-5.42c5.58-3.19,8.41-8.44,10.87-13.91,4.05-9,2-17.94-.9-26.78a3.79,3.79,0,0,0-.57-1c-2.56-3.75-4.9-7.69-7.78-11.18a25.8,25.8,0,0,0-7.29-6.34,32.21,32.21,0,0,0-16-3.48c-6.8.12-13.56,1.06-19.92,3.86-4.16,1.82-8.33,3.56-11.52,7a2.16,2.16,0,0,0-.66,1.48c.77,5.22,1.66,10.42,2.43,15.63,1.2,8.08,2.49,16.15,3.45,24.25.75,6.33,1.29,12.7,1.52,19.07.25,7,.27,14.07,0,21.08-.34,7.34-1.06,14.68-1.88,22a112.15,112.15,0,0,1-2.26,12c-.41,1.8-.61,1.77,1.24,1.85,7.68.34,15.36.65,23,1,1.32.06,1.84-.07,1.4-1.65-2.8-10-3.77-20.2-4-30.53-.19-7.85-.65-15.69-.93-23.53a18.63,18.63,0,0,1,.34-3.87c.27-1.49,1.35-2,2.8-1.87C335.37,218.33,337.22,218.44,339.06,218.56Zm-76.15-56.72h-.66c0-3.37,0-6.75,0-10.13,0-1.05-.33-1.4-1.35-1.06-5.63,1.87-11.34,3.53-16.43,6.75a1.54,1.54,0,0,0-.81,1.82c.66,5.51,1.29,11,1.79,16.55.2,2.23-1,3.06-3.23,2.85-3-.29-6-.52-9-.57-3.27-.05-3.28,0-2.54,3.3.07.32.17.63.24,1,1,5.11,2.19,10.2,3.06,15.33.24,1.42.69,1.48,1.83,1.4,3.42-.23,6.84-.46,10.26-.48,1.22,0,2.82.19,3,1.95a50.59,50.59,0,0,1,.22,6.85c-.56,9.9-1.35,19.79-1.81,29.7-.26,5.6,0,11.22-.08,16.83a28.08,28.08,0,0,0,4.48,15.31c4.7,7.7,13.84,12.14,22.46,10.73,7.52-1.24,13.59-5.28,18.58-10.81,3.82-4.22,5.89-9.51,7.4-15a21.52,21.52,0,0,0-.51-13.18c-.21-.6-.27-1.24-1.3-.88a24.09,24.09,0,0,1-14.16.49c-1.72-.45-1.84.15-1.91,1.57-.22,4.51-1.15,8.85-3.76,12.68a6.79,6.79,0,0,1-6.1,3.15c-5-.07-8.76-3.4-10.38-8.84s-.84-10.89-.13-16.36c1.15-8.8,2.28-17.6,3.31-26.41a43.73,43.73,0,0,0,.27-7.5c-.13-2.4.48-3.35,2.9-3.39,4.91-.1,9.81-.14,14.72-.26,1.57,0,3.14-.25,4.71-.41,1.17-.12,1.59-.69,1.49-2-.5-7-.92-14-1.31-21-.06-1.11-.52-1.11-1.33-.88-2.73.74-5.49,1.38-8.18,2.22-4.3,1.34-8.57,2.77-12.81,4.26-1.66.58-2.92-.13-2.94-2C262.88,170.89,262.91,166.37,262.91,161.84Zm81.65-131-.39-.06a2.59,2.59,0,0,0-.37.5c-3.73,7.14-7.54,14.24-11.16,21.44a218.14,218.14,0,0,1-18.53,30.78c-7.17,9.81-14.72,19.35-22,29.11-3.64,4.9-7.17,9.87-11.64,14.09-.86.81-2.82.87-2.47,2.51.26,1.22,1.22,2.28,1.88,3.41.08.14.19.27.28.41,1.2,2,2.94,2.48,5.18,2a23,23,0,0,0,10.13-5.39c5.32-4.52,9.41-10.12,13.7-15.53.3-.38.49-.84.78-1.23.09-.12.36-.12.55-.17a1.42,1.42,0,0,1,0,.45c-1,3.25-1.68,6.65-3.09,9.72a28.7,28.7,0,0,0-2.4,14.79c.49,5.53,3.12,8.44,8.57,9.16s10.66-1,15.7-3a1.28,1.28,0,0,0,.64-.94c.19-2.82.3-5.65.47-8.48.43-7.45.61-14.93,1.38-22.35.85-8.17,2.12-16.3,3.4-24.42,2.5-15.91,5.12-31.8,7.7-47.7C343.45,36.91,344,33.88,344.56,30.85ZM45.09,171.17l-.12.29c.7.39,1.41.76,2.1,1.16,3.77,2.18,7.59,4.28,11.3,6.56,7,4.33,12.73,10.25,18.5,16C83.8,202.17,91,208.91,96,217.48a3.7,3.7,0,0,0,4,2.07c7.23-.4,14.5-.33,21.71-.9,5.9-.46,10.9-3.24,15-7.48a8.93,8.93,0,0,0,2.66-8.06,22.39,22.39,0,0,0-1.1-3.92c-2.81-7.57-7.41-14-12.59-20.12a2.28,2.28,0,0,0-1.78-.4c-1.6.25-3.17.84-4.78,1a140.07,140.07,0,0,1-26.62.15,237.43,237.43,0,0,1-35.74-5.88C52.91,173,49,172.09,45.09,171.17Zm155.08-63.42c1.74,3.14,3.51,6,4.92,8.94a41.28,41.28,0,0,0,12.11,15c4,3.15,8.08,6.08,13.18,7.29,5.62,1.34,9.86-.93,13.65-4.7.52-.51.51-.79-.25-1.13-7.66-3.53-13.69-9.16-19-15.47-16.34-19.34-31.84-39.32-44.14-61.57a12.24,12.24,0,0,0-.71-1.06,1.34,1.34,0,0,0,0,.9c1.49,6.85,3.21,13.67,4.39,20.58,1,5.94,1.44,12,2.06,18,.84,8.07,1.83,16.12,1.28,24.29a79,79,0,0,1-10,34.52c-.62,1.08-.55,1.32.74,1.27a60,60,0,0,1,16,1.93,2.7,2.7,0,0,0,1.48-.15,7.29,7.29,0,0,0,4.48-5.06,25.75,25.75,0,0,0,1.59-7.8c-.13-7.83-.6-15.66-1.12-23.48C200.52,116.05,199.34,112.11,200.17,107.75ZM150.17,387l.22,0c3.45-6.11,6.93-12.2,10.34-18.34,4.48-8.08,9.2-16,15.94-22.46a168.5,168.5,0,0,1,22.21-18,76.15,76.15,0,0,1,28.67-11.75c1.09-.21,1-.54.73-1.38a25.71,25.71,0,0,0-6-10.18c-5.38-5.49-12.58-7.9-20.24-4.37a97.43,97.43,0,0,0-18.21,10.76c-9.21,7-18.82,13.41-28.23,20.11a2,2,0,0,0-.79,1.39c0,6.59.36,13.21-.07,19.77-.56,8.42-1.7,16.79-2.74,25.17C151.59,380.85,150.78,383.92,150.17,387ZM474.24,227.88l-.16-.38-1,.05c-8.36.76-16.71,1.59-25.08,2.25-5.44.42-10.89.61-16.34.85a94.75,94.75,0,0,1-27.27-2.43c-5.75-1.44-11-3.79-14.63-8.86-.69-1-1,0-1.3.33-4.81,6.68-8.44,13.87-8.95,22.26-.13,2.09-.28,4.49.58,6.27,2.67,5.48,5.82,10.72,8.77,16.07.39.71.67.6,1.17.08a38.06,38.06,0,0,1,3.31-3.17c8.54-6.93,18.57-11.31,28.24-16.3a11.93,11.93,0,0,1,1.84-.68q18.9-6,37.8-12.06C465.6,230.77,469.91,229.31,474.24,227.88Zm-140.8,70.19c.41.56.84,1.28,1.39,1.9,3.75,4.25,7.68,8.36,11.26,12.74a230.79,230.79,0,0,1,30.72,47.91c.1.22.37.36.56.54a3.42,3.42,0,0,0,0-.91c-.87-2.69-1.84-5.34-2.66-8-4.34-14.26-9.19-28.38-12.05-43-1.23-6.32-2.23-12.67-.86-19.12.27-1.31,1.07-3.08.52-3.83-.74-1-2.55-1.27-3.9-1.83a9,9,0,0,0-1.24-.41c-5.25-1.34-10.34-1.54-15,1.93a28.72,28.72,0,0,0-7.39,8.84A26.14,26.14,0,0,0,333.44,298.07Zm-70.74,78.2.59,0c1.29-9.59,2.48-19.19,3.88-28.77,1.6-11,2.8-22.1,6.61-32.66a6.46,6.46,0,0,0,.22-1.08,4.34,4.34,0,0,0-1.25,0,11.22,11.22,0,0,0-6,4.36c-3.95,5.74-7.82,11.53-11.67,17.34a2.16,2.16,0,0,0-.1,1.61c1,3.06,2.22,6.05,2.91,9.16,1,4.45,1.59,9,2.33,13.47.57,3.44,1.14,6.87,1.66,10.31C262.22,372.13,262.44,374.2,262.7,376.27Zm82-346.07-.09-.28c-.06,0-.16.11-.17.17a.74.74,0,0,0,.08.28Zm-140,93.43.06.05v-.09Z"/><path class="cls-2" d="M419.19,318.82l-1.37-2.54c1.81.62,3.19,1.05,4.54,1.56a175.61,175.61,0,0,1,23.7,11.41c15,8.38,30.16,16.64,45.24,24.95a11.48,11.48,0,0,0,2.52,1.13A9.1,9.1,0,0,0,493,354a661.34,661.34,0,0,1-62-78.3,162.66,162.66,0,0,1-13.1-22.81c-.68-1.46-.69-2.36.88-3,3.22,6.11,6.1,12.44,9.73,18.3,11.36,18.4,24.48,35.56,38.15,52.29,6.9,8.45,13.83,16.88,21.07,25,5.56,6.26,11.24,12.46,17.87,17.67.37.29.34,1.09.5,1.65-.54,0-1.24.21-1.59-.05-12.6-9.45-27.14-15.5-40.72-23.22-9.28-5.28-18.51-10.67-28-15.63C430.48,323.2,424.74,321.19,419.19,318.82Z"/><path class="cls-2" d="M181.47,134.72c-.32,2.08-.31,2.06-2.13,1.25-12.24-5.47-22.37-13.75-31.06-23.79-10.57-12.2-20.91-24.6-31.35-36.92-.2-.24-.45-.45-.68-.68l-.27-.27,0,.48q4.13,9.33,8.26,18.66a170.66,170.66,0,0,1,13.23,43.92c.57,3.81,1.39,7.59,2.07,11.39a12.16,12.16,0,0,1,.09,1.6c-.5-.12-1-.2-1.5-.35s-.91-.35-1.36-.53a122.15,122.15,0,0,0-3.76-24.86c-3.35-14.06-8.92-27.31-15-40.36q-5.34-11.48-11-22.77c-1.74-3.47-3.85-6.75-5.79-10.12l.37-.24a80.87,80.87,0,0,1,5.2,6.53A251.46,251.46,0,0,0,129,86.7c7.57,8.67,15,17.48,22.56,26.13A84.64,84.64,0,0,0,181.47,134.72Z"/><path class="cls-2" d="M434.12,188.55l-2.19.22c.29-.64.55-1.29.89-1.9,13.31-24.15,27.76-47.6,42.81-70.7q3.56-5.48,7.08-11l.12-.55-.42.27c-2.58,2.73-5.1,5.52-7.76,8.17-11.84,11.78-24.34,22.77-38.82,31.3a136.75,136.75,0,0,1-20.5,9.87l1.8-3c2.31-.95,4.66-1.82,6.92-2.87,13.89-6.44,26.17-15.29,37.38-25.59,6.58-6,12.74-12.55,19.1-18.84,2.52-2.49,5.06-5,7.63-7.41.62-.58,1.39-1.64,2.29-.7.3.31-.1,1.6-.52,2.21-19.75,29.18-38.45,59-55.53,89.84C434.3,188.15,434.22,188.36,434.12,188.55Z"/><path class="cls-2" d="M177,350.9a2.88,2.88,0,0,1,.33-.54c.31-.29.66-.54,1-.81a9.07,9.07,0,0,1,.49,1.17,108.59,108.59,0,0,1,3.46,20.41c1.14,14.16.65,28.32-.06,42.48,0,.4.35.82.53,1.23.32-.29.79-.52.93-.88,3.86-9.71,7.45-19.54,11.57-29.15,5.45-12.72,11.43-25.21,19.43-36.58,3.36-4.77,7-9.33,11.95-12.66.48-.32.48-1.27.92-1.74a41.56,41.56,0,0,1,3.22-3c.09-.08.66.13.71.3a7.56,7.56,0,0,1,.16,1.44c-10.84,9.46-19,20.9-25.49,33.68-9.7,19-17.33,38.9-24.45,59,0,.15,0,.35-.15.46-.47.48-1,.94-1.44,1.41a5.7,5.7,0,0,1-.61-1.81c.5-12.86,1.29-25.71,1.51-38.58A133.22,133.22,0,0,0,177,350.9Z"/><path class="cls-2" d="M95.25,306.18l2.14-.94c-.17.73-.3,1.47-.52,2.18A249.45,249.45,0,0,1,68.8,367a11.31,11.31,0,0,0-.74,1.71c-.18.15-.35.31-.52.47s-.08.25-.11.37l.3-.18.32-.68c.45,0,1.07.06,1.34-.19.92-.87,2.23-1.5,2.28-3.06,0-.21.31-.58.48-.58,2.27,0,3.19-2.06,4.73-3.13,7.51-5.23,14.75-10.87,22.45-15.78,8.41-5.36,18.07-7.72,27.7-10,2.81-.65,5.63-1.24,8.46-1.83a9.43,9.43,0,0,1,1.6-.08c-.19.48-.36,1-.58,1.43a2.72,2.72,0,0,1-.38.53c-11.06,2.24-22.17,4.44-32.32,9.63a132.5,132.5,0,0,0-30.37,21.74c-5,4.69-9.49,9.92-14.21,14.91a8.19,8.19,0,0,1-1.33,1.42c-.37.25-1,.15-1.45.21,0-.5-.26-1.11-.05-1.47.65-1.13,1.51-2.14,2.21-3.25C63.76,371.05,69.15,363,74,354.68A232.1,232.1,0,0,0,94.7,308.05a8.64,8.64,0,0,0,.19-1.62l0,0Z"/><path class="cls-2" d="M100.81,243.27c.64,1.46.08,2-1.42,2.17a308.65,308.65,0,0,1-41.2,3.05c-8.72,0-17.44.18-26.17.26-2.61,0-5.23,0-8,0l4.38,1.09c15,3.66,29.8,7.91,43.84,14.46,6.74,3.15,13.17,6.78,18.42,12.22,1.08,1.12,1.28,2.05.12,3.15-3.24-4.34-7.58-7.36-12.21-9.95-8.83-4.93-18.23-8.47-27.84-11.61-12.44-4.07-25.18-6.92-37.89-9.92-.54-.12-1-.79-1.43-1.2.58-.28,1.16-.8,1.73-.78,6.11.15,12.22.65,18.32.55,17.06-.28,34.13-.74,51.19-1.27,3.08-.09,6.14-.83,9.22-1.22S97.83,243.61,100.81,243.27Z"/><path class="cls-2" d="M341.19,353.9l-.63-2.8a18.38,18.38,0,0,1,2.12,1.56,122.71,122.71,0,0,1,21.68,29.74,176.8,176.8,0,0,1,11.08,25.26c.15.43.36.85.54,1.28l.45-.13q-2.91-15.36-5.82-30.73c-1.95-10.18-3.91-20.35-3.93-30.86l1.81,3.38c.63,5.35,1,10.74,1.94,16,2.72,15.45,5.76,30.84,8.48,46.29,1.2,6.81,1.95,13.69,2.84,20.55.14,1.06.57,2.66-1.09,2.74s-1.2-1.5-1.22-2.51c-.08-6.74-2-13.14-3.9-19.48-6.33-20.64-15.81-39.63-30.07-56-1.23-1.42-2.69-2.65-4-4l0,0Zm35.35,55.88c-.07-.13-.14-.3-.22-.47-.06.08-.16.17-.15.24a3.5,3.5,0,0,0,.17.55Z"/><path class="cls-2" d="M366.89,71.94c-2.75,4.5-5.44,9-8.27,13.5a241.92,241.92,0,0,1-22.17,30c-.42.48-.86.94-1.63,1.77.08-1.34.14-2.27.19-3.19,3.09-3.73,6.32-7.35,9.24-11.21a309.26,309.26,0,0,0,35.84-61.58c.53-1.19,1.08-2.38,1.69-3.53.38-.72.65-1.92,1.8-1.39s.42,1.47.1,2.24C378.37,51,372.82,63.44,367.81,76.08a233.86,233.86,0,0,0-11.17,35.83,38,38,0,0,0-.39,13.93c-.47.73-.81.68-1.22-.11a13.29,13.29,0,0,1-1.12-7c.37-7.3,2.34-14.28,4.54-21.17,2.55-8,5.43-16,8.16-23.92.17-.51.31-1,.46-1.55,0-.22.07-.44.1-.66Z"/><path class="cls-2" d="M253.65,117.44l-.89,1.87a9.83,9.83,0,0,1-1.21-1.63,45.73,45.73,0,0,1-1.82-4.34c-2.93-8.42-6.66-16.61-8.21-25.45-1.28-7.28-2.15-14.64-3.14-22-.28-2.1-.33-4.23-.67-6.37-.47,4.38-1,8.75-1.38,13.13A335.11,335.11,0,0,1,230,115.79c-.14.63-.36,1.25-.55,1.87l-1.56-1.54c.86-4.15,1.87-8.28,2.55-12.47,1.06-6.61,2-13.25,2.82-19.9.31-2.42.26-4.89.52-7.32.43-4,1.09-8,1.46-11.94.69-7.37,1.24-14.75,1.83-22.13.15-1.9.15-3.82.39-5.71.06-.54.73-1,1.12-1.51.29.56.86,1.13.83,1.67-.52,10.16.19,20.28,1.05,30.39.78,9.24,2,18.44,4.76,27.33,1.63,5.19,3.63,10.26,5.45,15.39.5,1.44.88,2.92,1.43,4.34C252.5,115.36,253.12,116.38,253.65,117.44Z"/><path class="cls-2" d="M285.52,348.87c.09-.8.18-1.61.32-2.77,7.75,9.9,13.68,20.54,19.09,31.5a359.49,359.49,0,0,1,14.31,33.65c0-3.07,0-6.14,0-9.2.15-16.2,2.76-32.09,6.22-47.86.45-2.05,1.39-4,.94-6.19a4.51,4.51,0,0,1,.23-1.94,13.51,13.51,0,0,1,.69-1.75l1,1.57c-.36,2.45-.66,4.91-1.08,7.36-1.2,7.09-2.47,14.16-3.66,21.25-2.34,13.89-2.79,27.88-2.39,41.92,0,.75.35,1.5.33,2.25a8.44,8.44,0,0,1-.48,1.92c-.46-.43-1.17-.77-1.36-1.3-1.74-4.76-3.31-9.57-5.08-14.32C308,387.14,300,370,289.39,354.12,288.18,352.31,286.81,350.62,285.52,348.87Z"/><path class="cls-2" d="M370.19,326.63c-1.82-4.11.07-7.3,2.77-10.06a16.73,16.73,0,0,1,10.46-5.27,48.69,48.69,0,0,1,10.08.49c1,.12,1.89,1.34,2.84,2-3-.18-6,0-8.94-.63a11.93,11.93,0,0,0-7.25.9c-3.87,1.64-7.14,3.9-8.4,8.23C371.32,323.8,370.72,325.2,370.19,326.63Z"/><path class="cls-2" d="M416,226.64c-2-.09-2.08-.13-1.3-1.93,3.17-7.33,6.42-14.62,9.6-22,.61-1.41,1.83-1.52,3-1.81Q422,212.88,416.63,224.8C416.36,225.39,416.18,226,416,226.64Z"/><path class="cls-2" d="M272.71,334.36a7.3,7.3,0,0,1,0-.81c.14-1.06.49-1.5,1.41-.51,3,3.19,6.05,6.26,8.85,9.58.7.83.48,2.44.68,3.69Q278.18,340.34,272.71,334.36Z"/><path class="cls-3" d="M450.42,184.94l-6.8,1.67Z"/><path class="cls-2" d="M184,107.09l.21,8.91c-.09-1.31-.25-2.62-.27-3.92C183.93,110.42,184,108.75,184,107.09Z"/><path class="cls-3" d="M443.62,186.61l-1.22.31Z"/><path class="cls-1" d="M458.45,72.79l-.45.55,0,0,.39-.56Z"/><path class="cls-1" d="M458.42,72.82l.14-.23-.2,0,.09.25Z"/><path class="cls-2" d="M100.79,49.74l.07.23-.07-.21Z"/><polygon class="cls-2" points="100.79 49.76 100.75 49.73 100.79 49.75 100.79 49.76"/><path class="cls-3" d="M88.69,131.6c1.28.57,2.6,1.08,3.85,1.71a400.78,400.78,0,0,0,49.12,21.2c5.13,1.81,10.14,3.93,15.29,5.93-2.46,1.85-4.93,3.51-7.15,5.44a70.78,70.78,0,0,0-6,6,5.47,5.47,0,0,0-1.11,5.81c2.81,9.26,5.22,18.64,7.86,28,4.22,14.86,8.24,29.79,12.85,44.53,2.68,8.59,4.63,17.33,6.79,26,1.21,4.86,2.49,9.69,3.72,14.54.14.53.21,1.07.3,1.61.46,3,1.91,4.2,4.84,3.49,7.92-1.92,15.82-3.94,23.72-6a86.72,86.72,0,0,0,10.33-3c16.55-6.55,26.37-18.82,30.13-36.1,0-.1.08-.2.46-.33.06,1.2.19,2.4.17,3.6a30.71,30.71,0,0,0,4.93,16.86,26.23,26.23,0,0,0,35.56,9.23c6.14-3.44,11.58-7.61,14.91-14,3-5.84,5.62-11.84,5.39-18.61a21.15,21.15,0,0,0-2.85-10.61c-1.25-2-2.06-1.91-4.07-.6a9.37,9.37,0,0,1-4.29,1.28,30.58,30.58,0,0,1-6.83-.24c-1.54-.24-2.95-1.22-4.47-1.74a3.56,3.56,0,0,0-2.37-.23,2.6,2.6,0,0,0-.83,2.06c.16,4.51-.1,8.94-2,13.13-.78,1.74-1.58,3.62-3.87,3.75a6,6,0,0,1-5.87-2.82c-2.57-4-2.85-8.54-2.28-13.09,1.14-9.07,2.52-18.12,3.65-27.19.41-3.3.36-6.65.54-10,.12-2.24.13-2.23,2.26-2.27,4.8-.09,9.6-.1,14.39-.33a22.44,22.44,0,0,0,5.08-1.07,3.08,3.08,0,0,0,2.28-3.52c-.51-8.11-1-16.22-1.51-24.33-.15-2.42-1.54-3.31-4.13-2.62-5.83,1.57-11.64,3.21-17.46,4.82-1.1.3-2.19.62-3.29.93a29.85,29.85,0,0,1-.45-3.23c-.12-4.42-.12-8.84-.27-13.25a52.6,52.6,0,0,0-.6-7c-.44-2.52-1.68-3.23-4.13-2.54A80,80,0,0,0,241,155.21,2.47,2.47,0,0,0,239.9,158c.71,5.13,1.34,10.26,2.09,15.38.23,1.54-.38,1.35-1.57,1.35-4.07,0-8.15.09-12.2.41-1.85.14-2.27,1.19-1.84,3.05,1.31,5.62,2.66,11.22,3.86,16.86a31.59,31.59,0,0,1,.34,4.88c.14,2.37.86,2.92,3.17,2.76,3.63-.25,7.27-.35,10.9-.56,1.11-.06,1.54.28,1.47,1.45-.29,4.9-.42,9.8-.75,14.69-.42,6.37-1,12.72-1.48,19.08a4.69,4.69,0,0,1-.38,1.48c-1.51-7.37-4.47-13.8-10.23-18.9s-12.34-7.36-19.65-6.42c1.56-3.88,3.4-7.64,4.6-11.6,1.75-5.73,1.36-11.67.54-17.52a54.46,54.46,0,0,0-2.21-9.51c-2.13-6.41-6.91-10.55-12.58-13.81-1-.57-2-1.17-2.94-1.75a1.21,1.21,0,0,1-.3-2c4.26-4.68,4.71-10.56,4.85-16.37.12-5.28-.46-10.56-.73-15.85,0-.31,0-.63,0-1.17a3.77,3.77,0,0,1,.65.56c4.24,6.14,9.94,10.72,16.2,14.56,4.55,2.8,9.58,4.61,15.09,3.38a18.4,18.4,0,0,0,10.3-6.54,58.36,58.36,0,0,0,8.3-13.63c5.23-11.7,8.34-24,11.09-36.47,0-.15.1-.3.45-.48.18,2.35.33,4.7.57,7,.85,8.51,1.53,17,2.67,25.51a36.76,36.76,0,0,0,7.12,16.84c2.7,3.66,5.09,4.43,9.51,3.27,5.54-1.44,9.77-4.92,13.77-8.76a8.25,8.25,0,0,0,.95-1.56c0,3.39-.14,6.21.05,9a19.12,19.12,0,0,0,1.13,5.73c2.56,6.46,6.19,8.13,14.08,8.08a5.62,5.62,0,0,1,1.67.08,39.26,39.26,0,0,0-4.87,2.14,102.49,102.49,0,0,0-8.67,5.75c-1.8,1.35-2.27,3.29-1.89,5.68,2,12.37,4,24.74,5.6,37.15.92,7,1.4,14.12,1.67,21.19.29,7.24.42,14.51,0,21.74-.53,9.35-1.57,18.67-2.6,28a25.37,25.37,0,0,1-2.05,6.32c-.66,1.66-.22,2.85,1.63,3,3.79.36,7.6.61,11.41.79,4.8.23,9.59.35,14.39.51a20.19,20.19,0,0,0,2.46,0c2.85-.25,3.88-1.82,3.22-4.57-1-4.39-2.17-8.78-2.89-13.22a104.44,104.44,0,0,1-1.19-12.36c-.37-9.43-.56-18.87-.77-28.3-.06-2.48,0-2.44,2.55-2.38,8.32.21,16.32-.83,23.87-4.86,7.29-3.9,11.52-10,13.81-17.61.86-2.91,1.34-5.94,2-8.92.17-.81-.26-1.45,1.33-.79,3.66,1.52,7.23,3.37,11.38,3.67,16.81,1.23,33.56,1.29,50.14-2.25,1.77-.38,3.44-1.17,5.17-1.71a4.41,4.41,0,0,1,1.26,0,4.23,4.23,0,0,1-.94.77c-5.17,2.1-10.3,4.35-15.57,6.2-7.9,2.77-15.91,5.23-23.86,7.87S390.2,211.11,385.36,218c-5.27,7.54-9.55,15.55-9.11,25.17a31,31,0,0,0,1.24,8c.71,2.17,2.34,4.05,3.53,6.07,4.22,7.18,8.57,14.3,12.63,21.58,7.36,13.22,14.48,26.58,21.85,39.8,2.28,4.07,5.21,7.77,7.57,11.8,1.63,2.78,2.79,5.83,4.17,8.76.05.12.23.19.35.28v0c-1.29-1.64-2.57-3.29-3.9-4.91a93.08,93.08,0,0,0-13.63-13.14c-6.43-5.23-12.72-10.63-19-16-3.91-3.31-7.81-6.62-11.64-10-3.21-2.86-6.16-6-9.49-8.75-6.31-5.16-13.57-7.9-21.8-7-4.8.52-8.59,3.23-11.79,6.77-7.27,8-8.66,17.56-7.1,27.8.9,5.86,1.9,11.72,3.15,17.51,1.15,5.37,2.69,10.65,4.06,16l4.8,18.49a7.78,7.78,0,0,1,.32,3c-.16-.33-.34-.65-.47-1-2.71-7.64-5.37-15.27-9-22.57-4.71-9.42-9-19.08-13.51-28.59a23,23,0,0,0-8.78-9.49c-3.23-2.05-8.15-1.65-11.42.54-5.27,3.52-8.78,8.47-11.33,14.07-1,2.13-1.08,4.74-1.21,7.15-.2,3.57-.05,7.15-.05,10.73h-.94c0-5.3.13-10.61-.06-15.91a18.79,18.79,0,0,0-2.24-8.94,9.86,9.86,0,0,0-12.87-3.94,18.68,18.68,0,0,0-7.37,7q-5.68,8.69-11.1,17.53c-2.87,4.68-5.55,9.48-8.32,14.23a97.13,97.13,0,0,0-9.14,19.47,3,3,0,0,1-.23.61,3.12,3.12,0,0,1-.49.47,3.94,3.94,0,0,1,0-.68A146,146,0,0,0,235.25,338c-.43-9.14-1.12-18.32-4.83-26.87-3.61-8.3-9.55-13.95-18.74-15.6a17.26,17.26,0,0,0-9.75,1.32,66.9,66.9,0,0,0-19,11.26c-3.75,3.29-8.1,5.89-12.16,8.82-8.53,6.15-17.16,12.16-25.53,18.53A99.24,99.24,0,0,0,130,349.38a21.53,21.53,0,0,1-3.69,2.79v0q4-4.8,8-9.61c1.84-2.22,3.65-4.47,5.46-6.7a8.28,8.28,0,0,0,.68-.91c6.09-10.14,11.89-20.44,16.41-31.39a83.7,83.7,0,0,0,5.43-22.78,23.8,23.8,0,0,0,0-7.1c-.84-4.4-3.54-6.05-8-5.79A54.34,54.34,0,0,0,141,270.61c-4.3,1.37-8.62,2.69-12.93,4a3.18,3.18,0,0,1-.7.1c2.4-3.16,4.94-6.21,7.17-9.49,2.53-3.72,4.38-7.73,4.18-12.47-.15-4-1.79-6.86-5.49-8.3-4.1-1.58-8.24-3.1-12.46-4.33-6.16-1.8-12.37-3.46-18.61-4.91s-12.36-2.16-18.38-3.8c-11.17-3-22.58-4.76-33.93-6.79a5.65,5.65,0,0,1-2.17-.76c3.43.24,6.88.38,10.29.75a93.33,93.33,0,0,0,20.26-.18,296.1,296.1,0,0,1,34.46-1.5,48.36,48.36,0,0,0,14.69-2,27.09,27.09,0,0,0,12.68-8.29,11.77,11.77,0,0,0,2.35-11.94,55.68,55.68,0,0,0-3.94-9.46,102.81,102.81,0,0,0-14-19.06c-5.58-6.28-11-12.67-16.62-18.94-6.2-7-12.49-13.85-18.73-20.78a6.16,6.16,0,0,1-.53-.8Z"/><path class="cls-2" d="M240.38,243.22a39.53,39.53,0,0,1-6.14,21.65c-5.22,8.43-12.07,15.36-21.74,18.48a255.44,255.44,0,0,1-33.58,8.91,1.42,1.42,0,0,1-1.16-.68c-.73-2.09-1.42-4.21-2-6.35-2.48-9.76-4.71-19.58-7.39-29.28-3.15-11.44-6.72-22.76-10-34.16q-6.51-22.68-12.78-45.42a3.13,3.13,0,0,1,.69-2.59,95.3,95.3,0,0,1,8.35-7.74c4-3.17,8.45-5.77,13.58-6.75,9.48-1.81,18.9-1.81,28,1.78a37.1,37.1,0,0,1,13,8.4,21,21,0,0,1,5.45,11.16c1.13,6.11,1.94,12.31.75,18.51-1,5.18-2.64,10.16-6.69,13.87-1.22,1.12-2.87,1.75-4.21,2.75-.49.36-.67,1.14-1,1.72.64.23,1.3.71,1.91.65,3.14-.31,6.25-.81,9.39-1.13,8.4-.85,14.61,3.11,19.62,9.32C238.66,231.57,240.11,237.85,240.38,243.22Zm-23.94,5.32a30.4,30.4,0,0,0-.46-3.69c-1.27-5.71-3.95-10.42-10-11.93-8.45-2.1-15.67.57-21.85,6.43A4.54,4.54,0,0,0,183,243.6a10,10,0,0,0,.72,2.16,220.26,220.26,0,0,1,8.87,25.41,2,2,0,0,0,2.91,1.29c3.28-1.27,6.84-2.18,9.72-4.09C211.94,263.9,216.47,257.83,216.44,248.54Zm-23.16-57.19c-.17-1.18-.24-2.38-.52-3.54-1.44-5.92-6.82-13.61-15.13-14.45-2-.2-4-.43-6-.53a13.52,13.52,0,0,0-9.53,3.42,2.16,2.16,0,0,0-.6,2.64c2.17,6.16,4.2,12.36,6.4,18.5,1.15,3.22,2.53,6.37,3.84,9.53.37.91.64,2.24,1.32,2.53.86.36,2.11,0,3.15-.27,6.06-1.36,10.41-5.2,14.25-9.81A12.31,12.31,0,0,0,193.28,191.35Z"/><path class="cls-2" d="M339.06,218.56c-1.84-.12-3.69-.23-5.54-.38-1.45-.12-2.53.38-2.8,1.87a18.63,18.63,0,0,0-.34,3.87c.28,7.84.74,15.68.93,23.53.24,10.33,1.21,20.55,4,30.53.44,1.58-.08,1.71-1.4,1.65-7.68-.36-15.36-.67-23-1-1.85-.08-1.65-.05-1.24-1.85a112.15,112.15,0,0,0,2.26-12c.82-7.31,1.54-14.65,1.88-22,.31-7,.29-14.06,0-21.08-.23-6.37-.77-12.74-1.52-19.07-1-8.1-2.25-16.17-3.45-24.25-.77-5.21-1.66-10.41-2.43-15.63a2.16,2.16,0,0,1,.66-1.48c3.19-3.39,7.36-5.13,11.52-7,6.36-2.8,13.12-3.74,19.92-3.86a32.21,32.21,0,0,1,16,3.48,25.8,25.8,0,0,1,7.29,6.34c2.88,3.49,5.22,7.43,7.78,11.18a3.79,3.79,0,0,1,.57,1c2.88,8.84,4.95,17.77.9,26.78-2.46,5.47-5.29,10.72-10.87,13.91A41.18,41.18,0,0,1,339.06,218.56Zm-3.35-13,.06-.22c1.85-.13,3.71-.14,5.54-.42,3.66-.55,7.33-1.28,10.48-3.34,11.18-7.28,9.16-21.7,2.86-28.57-7.07-7.71-16.18-8.63-25.87-6.85a2.23,2.23,0,0,0-2,2.42c.13,2.18.38,4.36.57,6.54.81,9.11,1.58,18.23,2.46,27.34a2.93,2.93,0,0,0,1.39,2.08A27.08,27.08,0,0,0,335.71,205.54Z"/><path class="cls-2" d="M262.91,161.84c0,4.53,0,9,0,13.58,0,1.91,1.28,2.62,2.94,2,4.24-1.49,8.51-2.92,12.81-4.26,2.69-.84,5.45-1.48,8.18-2.22.81-.23,1.27-.23,1.33.88.39,7,.81,14,1.31,21,.1,1.27-.32,1.84-1.49,2-1.57.16-3.14.37-4.71.41-4.91.12-9.81.16-14.72.26-2.42,0-3,1-2.9,3.39a43.73,43.73,0,0,1-.27,7.5c-1,8.81-2.16,17.61-3.31,26.41-.71,5.47-1.51,10.89.13,16.36s5.41,8.77,10.38,8.84a6.79,6.79,0,0,0,6.1-3.15c2.61-3.83,3.54-8.17,3.76-12.68.07-1.42.19-2,1.91-1.57a24.09,24.09,0,0,0,14.16-.49c1-.36,1.09.28,1.3.88a21.52,21.52,0,0,1,.51,13.18c-1.51,5.45-3.58,10.74-7.4,15-5,5.53-11.06,9.57-18.58,10.81-8.62,1.41-17.76-3-22.46-10.73a28.08,28.08,0,0,1-4.48-15.31c.09-5.61-.18-11.23.08-16.83.46-9.91,1.25-19.8,1.81-29.7a50.59,50.59,0,0,0-.22-6.85c-.14-1.76-1.74-2-3-1.95-3.42,0-6.84.25-10.26.48-1.14.08-1.59,0-1.83-1.4-.87-5.13-2-10.22-3.06-15.33-.07-.32-.17-.63-.24-1-.74-3.25-.73-3.35,2.54-3.3,3,0,6,.28,9,.57,2.23.21,3.43-.62,3.23-2.85-.5-5.53-1.13-11-1.79-16.55a1.54,1.54,0,0,1,.81-1.82c5.09-3.22,10.8-4.88,16.43-6.75,1-.34,1.36,0,1.35,1.06,0,3.38,0,6.76,0,10.13Z"/><path class="cls-2" d="M344.56,30.85c-.53,3-1.11,6.06-1.61,9.1-2.58,15.9-5.2,31.79-7.7,47.7-1.28,8.12-2.55,16.25-3.4,24.42-.77,7.42-1,14.9-1.38,22.35-.17,2.83-.28,5.66-.47,8.48a1.28,1.28,0,0,1-.64.94c-5,2-10.17,3.72-15.7,3s-8.08-3.63-8.57-9.16a28.7,28.7,0,0,1,2.4-14.79c1.41-3.07,2.09-6.47,3.09-9.72a1.42,1.42,0,0,0,0-.45c-.19,0-.46,0-.55.17-.29.39-.48.85-.78,1.23-4.29,5.41-8.38,11-13.7,15.53A23,23,0,0,1,285.38,135c-2.24.48-4,0-5.18-2-.09-.14-.2-.27-.28-.41-.66-1.13-1.62-2.19-1.88-3.41-.35-1.64,1.61-1.7,2.47-2.51,4.47-4.22,8-9.19,11.64-14.09,7.24-9.76,14.79-19.3,22-29.11a218.14,218.14,0,0,0,18.53-30.78c3.62-7.2,7.43-14.3,11.16-21.44a2.59,2.59,0,0,1,.37-.5Z"/><path class="cls-2" d="M57.8,325.65c4.3-4.64,8.68-9.2,12.88-13.92,9.71-10.9,18.69-22.35,25.86-35.1a60,60,0,0,0,8-28.51A58.43,58.43,0,0,0,104,240c-.11-1,0-1.24.93-1,8.51,2.66,17.42,4,25.67,7.57,4.74,2,6.3,4.93,4.7,9.89a24.25,24.25,0,0,1-4,7.78c-4,4.93-8.48,9.51-12.77,14.23-.18.2-.41.36-.6.56-.73.77-1,1.77-.17,2.45a2.81,2.81,0,0,0,2.31.36c4.32-1.62,8.51-3.61,12.89-5C138.54,275,144.29,273.5,150,272a25.31,25.31,0,0,1,4.37-.48c3.17-.27,4.41.94,4.72,4.15.53,5.32-.59,10.41-1.81,15.51-.74,3.1-1.53,6.2-2.37,9.56-.82-2.1-1.45-3.83-2.17-5.54-2.43-5.82-7.22-7.94-13.12-8.35-7.61-.53-14.74,1.38-21.55,4.45-7.55,3.41-15.11,6.82-22.38,10.75-6.36,3.45-12.35,7.58-18.46,11.48-6.43,4.1-12.8,8.29-19.2,12.45Z"/><path class="cls-2" d="M45.09,171.17c3.9.92,7.82,1.78,11.71,2.76a237.43,237.43,0,0,0,35.74,5.88,140.07,140.07,0,0,0,26.62-.15c1.61-.15,3.18-.74,4.78-1a2.28,2.28,0,0,1,1.78.4c5.18,6.08,9.78,12.55,12.59,20.12a22.39,22.39,0,0,1,1.1,3.92,8.93,8.93,0,0,1-2.66,8.06c-4.15,4.24-9.15,7-15,7.48-7.21.57-14.48.5-21.71.9a3.7,3.7,0,0,1-4-2.07c-5-8.57-12.22-15.31-19.15-22.26-5.77-5.79-11.46-11.71-18.5-16-3.71-2.28-7.53-4.38-11.3-6.56-.69-.4-1.4-.77-2.1-1.16Z"/><path class="cls-2" d="M200.17,107.75c-.83,4.36.35,8.3.61,12.3.52,7.82,1,15.65,1.12,23.48a25.75,25.75,0,0,1-1.59,7.8,7.29,7.29,0,0,1-4.48,5.06,2.7,2.7,0,0,1-1.48.15,60,60,0,0,0-16-1.93c-1.29,0-1.36-.19-.74-1.27a79,79,0,0,0,10-34.52c.55-8.17-.44-16.22-1.28-24.29-.62-6-1.05-12.07-2.06-18-1.18-6.91-2.9-13.73-4.39-20.58a1.34,1.34,0,0,1,0-.9,12.24,12.24,0,0,1,.71,1.06c12.3,22.25,27.8,42.23,44.14,61.57,5.33,6.31,11.36,11.94,19,15.47.76.34.77.62.25,1.13-3.79,3.77-8,6-13.65,4.7-5.1-1.21-9.18-4.14-13.18-7.29a41.28,41.28,0,0,1-12.11-15C203.68,113.71,201.91,110.89,200.17,107.75Z"/><path class="cls-2" d="M150.17,387c.61-3.08,1.42-6.15,1.81-9.26,1-8.38,2.18-16.75,2.74-25.17.43-6.56,0-13.18.07-19.77a2,2,0,0,1,.79-1.39c9.41-6.7,19-13.14,28.23-20.11A97.43,97.43,0,0,1,202,300.54c7.66-3.53,14.86-1.12,20.24,4.37a25.71,25.71,0,0,1,6,10.18c.28.84.36,1.17-.73,1.38a76.15,76.15,0,0,0-28.67,11.75,168.5,168.5,0,0,0-22.21,18c-6.74,6.49-11.46,14.38-15.94,22.46-3.41,6.14-6.89,12.23-10.34,18.34Z"/><path class="cls-3" d="M409.33,85.21c-2.83,5.27-5.86,10.44-8.45,15.82-3.33,6.91-6.3,14-9.43,21s-6.63,14.09-9.44,21.32a147.29,147.29,0,0,0-7.61,27.15c-.12.68-.2,1.37-.37,2.56-.42-1-.62-1.67-.92-2.26-3.28-6.25-7.05-12.1-12.37-16.91-3.69-3.34-8.05-4.82-12.71-5.85a42.91,42.91,0,0,0-17.19-.46,1.77,1.77,0,0,1-1-.12c.71-.31,1.44-.6,2.15-.92A94.81,94.81,0,0,0,354,132.37c12.46-10.41,25.15-20.56,37.52-31.09,6.1-5.18,11.7-11,17.52-16.45Z"/><path class="cls-2" d="M474.24,227.88c-4.33,1.43-8.64,2.89-13,4.28q-18.9,6-37.8,12.06a11.93,11.93,0,0,0-1.84.68c-9.67,5-19.7,9.37-28.24,16.3a38.06,38.06,0,0,0-3.31,3.17c-.5.52-.78.63-1.17-.08-2.95-5.35-6.1-10.59-8.77-16.07-.86-1.78-.71-4.18-.58-6.27.51-8.39,4.14-15.58,8.95-22.26.27-.37.61-1.31,1.3-.33,3.59,5.07,8.88,7.42,14.63,8.86a94.75,94.75,0,0,0,27.27,2.43c5.45-.24,10.9-.43,16.34-.85,8.37-.66,16.72-1.49,25.08-2.25l1-.05Z"/><path class="cls-2" d="M444.39,96.68c-2.59,4.91-5,9.91-7.79,14.7-4,6.82-8.58,13.3-12.28,20.26-7.76,14.6-17.06,28.26-25.49,42.44-2.8,4.72-5.08,9.75-7.5,14.68a1.71,1.71,0,0,1-1.94,1.17c-3.84-.15-7.17-1.82-10.39-3.59-1-.55-1.58-2.29-1.82-3.59-1-5.4-.2-10.73,1-16a17.51,17.51,0,0,0,.51-2.23c.41-4.29,2.94-7.09,6.17-9.68,4.12-3.3,8.08-6.83,11.88-10.5q19.56-18.83,39-37.84a72.47,72.47,0,0,0,4.92-5.69c1.19-1.44,2.28-3,3.42-4.45Z"/><path class="cls-2" d="M333.44,298.07a26.14,26.14,0,0,1,1.33-3.33,28.72,28.72,0,0,1,7.39-8.84c4.64-3.47,9.73-3.27,15-1.93a9,9,0,0,1,1.24.41c1.35.56,3.16.81,3.9,1.83.55.75-.25,2.52-.52,3.83-1.37,6.45-.37,12.8.86,19.12,2.86,14.67,7.71,28.79,12.05,43,.82,2.7,1.79,5.35,2.66,8a3.42,3.42,0,0,1,0,.91c-.19-.18-.46-.32-.56-.54a230.79,230.79,0,0,0-30.72-47.91c-3.58-4.38-7.51-8.49-11.26-12.74C334.28,299.35,333.85,298.63,333.44,298.07Z"/><path class="cls-2" d="M262.7,376.27c-.26-2.07-.48-4.14-.79-6.2-.52-3.44-1.09-6.87-1.66-10.31-.74-4.49-1.34-9-2.33-13.47-.69-3.11-2-6.1-2.91-9.16a2.16,2.16,0,0,1,.1-1.61c3.85-5.81,7.72-11.6,11.67-17.34a11.22,11.22,0,0,1,6-4.36,4.34,4.34,0,0,1,1.25,0,6.46,6.46,0,0,1-.22,1.08c-3.81,10.56-5,21.66-6.61,32.66-1.4,9.58-2.59,19.18-3.88,28.77Z"/><path class="cls-2" d="M447.52,91.64c-.56,2-1.29,3.86-3.13,5l-.32-.33,3.48-4.68Z"/><path class="cls-2" d="M344.7,30.2l-.18.17a.74.74,0,0,1-.08-.28c0-.06.11-.12.17-.17Z"/><path class="cls-2" d="M58.05,326l-.71,0,.46-.32Z"/><path class="cls-3" d="M409.05,84.83l.46-.42.2.19-.38.61Z"/><path class="cls-3" d="M88.6,131.71l-.19-.29.28.18Z"/><path class="cls-3" d="M409.51,84.41l.28-.3c0,.17-.05.33-.08.49Z"/><polygon class="cls-3" points="204.72 123.63 204.79 123.59 204.78 123.68 204.72 123.63"/><path class="cls-2" d="M447.55,91.67l.17-.13s0,.08-.06.09a.32.32,0,0,1-.14,0Z"/><polygon class="cls-3" points="427.58 339.52 427.63 339.56 427.58 339.54 427.58 339.52"/><path class="cls-3" d="M126.26,352.17l-.3.37,0,0,.35-.37Z"/><polygon class="cls-3" points="125.96 352.54 125.98 352.63 125.93 352.58 125.96 352.54"/><path class="cls-1" d="M116,74.79l0-.48.27.27Z"/><path class="cls-1" d="M482.41,104.93l.42-.27-.12.55Z"/><path class="cls-1" d="M67.54,369.14c.17-.16.34-.32.52-.47v0l-.32.68A.69.69,0,0,0,67.54,369.14Z"/><path class="cls-1" d="M67.73,369.33l-.3.18c0-.12.07-.25.11-.37A.69.69,0,0,1,67.73,369.33Z"/><path class="cls-1" d="M376.54,409.78l-.2.32a3.5,3.5,0,0,1-.17-.55c0-.07.09-.16.15-.24Z"/><path class="cls-1" d="M366.89,71.94l.28-.51c0,.22-.07.44-.1.66Z"/><path class="cls-1" d="M216.44,248.54c0,9.29-4.5,15.36-11.25,19.83-2.88,1.91-6.44,2.82-9.72,4.09a2,2,0,0,1-2.91-1.29,220.26,220.26,0,0,0-8.87-25.41,10,10,0,0,1-.72-2.16,4.54,4.54,0,0,1,1.12-4.25c6.18-5.86,13.4-8.53,21.85-6.43,6.09,1.51,8.77,6.22,10,11.93A30.4,30.4,0,0,1,216.44,248.54Zm-3.53.18a26.55,26.55,0,0,0-.5-3.65c-1.11-4.34-3.21-8-8-8.9-6.76-1.32-12.54.86-17.5,5.43a1.91,1.91,0,0,0-.28,1.66c3,8.2,6.61,16.2,8.49,24.79,0,.25.81.6,1.08.49,2.36-1,4.9-1.66,7-3.07C208.83,261.62,212.88,256.62,212.91,248.72Z"/><path class="cls-1" d="M193.28,191.35a12.31,12.31,0,0,1-2.83,8c-3.84,4.61-8.19,8.45-14.25,9.81-1,.23-2.29.63-3.15.27-.68-.29-1-1.62-1.32-2.53-1.31-3.16-2.69-6.31-3.84-9.53-2.2-6.14-4.23-12.34-6.4-18.5a2.16,2.16,0,0,1,.6-2.64,13.52,13.52,0,0,1,9.53-3.42c2,.1,4,.33,6,.53,8.31.84,13.69,8.53,15.13,14.45C193,189,193.11,190.17,193.28,191.35Zm-3.61.11c-.68-6-3.26-10.89-8.91-13.44-2.44-1.1-5.39-1.08-8.1-1.6-2.45-.47-4.62.4-6.72,1.47a1.53,1.53,0,0,0-.54,1.34q4.07,12.32,8.24,24.59c.77,2.26,1,2.23,3.31,1.48,4.56-1.49,7.76-4.71,10.77-8.21A8.25,8.25,0,0,0,189.67,191.46Z"/><path class="cls-1" d="M335.71,205.54a27.08,27.08,0,0,1-4.53-1,2.93,2.93,0,0,1-1.39-2.08c-.88-9.11-1.65-18.23-2.46-27.34-.19-2.18-.44-4.36-.57-6.54a2.23,2.23,0,0,1,2-2.42c9.69-1.78,18.8-.86,25.87,6.85,6.3,6.87,8.32,21.29-2.86,28.57-3.15,2.06-6.82,2.79-10.48,3.34-1.83.28-3.69.29-5.54.42Zm.76-3.83a44.21,44.21,0,0,0,4.45-.36c3.26-.56,6.56-1.09,9.37-3,8.37-5.83,6.69-17,2.08-22.5-5.76-6.86-13.59-7.48-21.8-6.4-.84.11-1,.62-.87,1.4.39,2.19.82,4.38,1.08,6.59q1.28,11,2.42,22.06c.27,2.56-.27,2.23,2.34,2.26Z"/><path class="cls-3" d="M212.91,248.72c0,7.9-4.08,12.9-9.75,16.75-2.07,1.41-4.61,2.12-7,3.07-.27.11-1-.24-1.08-.49-1.88-8.59-5.48-16.59-8.49-24.79a1.91,1.91,0,0,1,.28-1.66c5-4.57,10.74-6.75,17.5-5.43,4.8.94,6.9,4.56,8,8.9A26.55,26.55,0,0,1,212.91,248.72Z"/><path class="cls-3" d="M189.67,191.46a8.25,8.25,0,0,1-1.95,5.63c-3,3.5-6.21,6.72-10.77,8.21-2.3.75-2.54.78-3.31-1.48q-4.19-12.27-8.24-24.59a1.53,1.53,0,0,1,.54-1.34c2.1-1.07,4.27-1.94,6.72-1.47,2.71.52,5.66.5,8.1,1.6C186.41,180.57,189,185.47,189.67,191.46Z"/><path class="cls-3" d="M336.47,201.71h-.93c-2.61,0-2.07.3-2.34-2.26q-1.12-11-2.42-22.06c-.26-2.21-.69-4.4-1.08-6.59-.14-.78,0-1.29.87-1.4,8.21-1.08,16-.46,21.8,6.4,4.61,5.49,6.29,16.67-2.08,22.5-2.81,2-6.11,2.49-9.37,3A44.21,44.21,0,0,1,336.47,201.71Z"/>
        </g>
    </g>
</svg>